<svg xmlns="http://www.w3.org/2000/svg" viewBox="0 0 440 520" fill="none">
  <defs>
    <linearGradient id="hoodieShadow" x1="0" y1="0" x2="0" y2="1">
      <stop offset="0%" stop-color="#000" stop-opacity="0.15"/>
      <stop offset="55%" stop-color="#000" stop-opacity="0.04"/>
      <stop offset="100%" stop-color="#000" stop-opacity="0.18"/>
    </linearGradient>
  </defs>

  <path d="M126 78 L168 44 C181 54 198 60 220 60 C242 60 259 54 272 44 L314 78 L360 140 L332 170 L321 128 L298 150 L298 444 C298 466 281 482 259 482 H181 C159 482 142 466 142 444 V150 L119 128 L108 170 L80 140 Z"
        fill="__GARMENT_COLOR__"/>
  <path d="M126 78 L168 44 C181 54 198 60 220 60 C242 60 259 54 272 44 L314 78 L360 140 L332 170 L321 128 L298 150 L298 444 C298 466 281 482 259 482 H181 C159 482 142 466 142 444 V150 L119 128 L108 170 L80 140 Z"
        fill="url(#hoodieShadow)"/>

  <path d="M166 76 C177 66 194 60 220 60 C246 60 263 66 274 76"
        stroke="#ffffff" stroke-opacity="0.35" stroke-width="14" stroke-linecap="round"/>
  <path d="M164 76 C170 126 180 160 194 196"
        stroke="#000000" stroke-opacity="0.08" stroke-width="12" stroke-linecap="round"/>
  <path d="M276 76 C270 126 260 160 246 196"
        stroke="#000000" stroke-opacity="0.08" stroke-width="12" stroke-linecap="round"/>

  <path d="M126 78 L168 44 C181 54 198 60 220 60 C242 60 259 54 272 44 L314 78 L360 140 L332 170 L321 128 L298 150 L298 444 C298 466 281 482 259 482 H181 C159 482 142 466 142 444 V150 L119 128 L108 170 L80 140 Z"
        stroke="#000000" stroke-opacity="0.2" stroke-width="3" stroke-linejoin="round"/>

  <path d="M132 78 L120 112 L142 126 L150 102" stroke="#000000" stroke-opacity="0.12" stroke-width="6" stroke-linecap="round" stroke-linejoin="round"/>
  <path d="M308 78 L320 112 L298 126 L290 102" stroke="#000000" stroke-opacity="0.12" stroke-width="6" stroke-linecap="round" stroke-linejoin="round"/>
</svg>
